<?xml version="1.0" encoding="UTF-8"?><svg id="_лой_1" xmlns="http://www.w3.org/2000/svg" viewBox="0 0 339.85 74.15"><path d="M277.82,74.15l-10.85-23.33c2.19-1.35,4.08-2.76,5.64-4.11l.57-.49-4.45-9.62-1.01,1.02c-1.02,1.02-2.7,2.52-5,4.04L243.33,0l-19.53,41.4c-2.39-1.64-4.1-3.27-5.12-4.38l-1.01-1.09-4.56,9.66,.55,.5c1.43,1.29,3.39,2.86,5.85,4.41l-11.16,23.66h11.05l9-19.38c4.27,1.49,9.3,2.52,15.08,2.52s10.52-.95,14.75-2.38l8.91,19.24h10.67Zm-23.82-28.41c-3.05,.93-6.54,1.55-10.51,1.55s-7.74-.64-10.85-1.62l10.69-23,10.68,23.07Z"/><path d="M26.45,42.81c5.59-.95,8.93-1.82,12.61-5.05,4.05-3.56,6.11-8.37,6.11-14.29,0-3.11-.63-6-1.87-8.57-1.24-2.58-2.97-4.72-5.13-6.36-2.15-1.63-4.72-2.8-7.63-3.48-2.89-.68-7.99-1-15.58-1H0V74.15H10v-31.07h4.26l21,31.07h12.47l-21.28-31.34Zm8.43-19.2c0,3.42-1.13,5.83-3.46,7.35-2.42,1.59-6.31,2.36-11.54,2.3H10V13.87h10.16c5.17,0,8.99,.8,11.35,2.39,2.27,1.52,3.37,3.93,3.37,7.36Z"/><path d="M181.83,24.87c-1.78-4.52-4.39-8.41-7.73-11.57-3.35-3.16-7.37-5.52-11.96-7.01-4.55-1.48-11.85-2.24-21.71-2.24h-15.51V74.15h22.95c9.26,0,16.43-1.5,21.31-4.47,4.88-2.97,8.7-7.14,11.35-12.4,2.63-5.23,3.97-10.88,3.97-16.78s-.9-11.12-2.67-15.62Zm-47.19-11h3.09c7.53,0,13.38,.38,17.4,1.14,3.92,.74,7.38,2.25,10.28,4.46,2.89,2.21,5.15,5.12,6.72,8.64,1.58,3.55,2.38,7.46,2.38,11.64s-.68,7.92-2.01,11.1c-1.33,3.16-3.29,5.87-5.82,8.05-2.53,2.18-5.54,3.67-8.96,4.43-3.51,.79-9.22,1.18-16.99,1.18h-6.07V13.87Z"/><rect x="193.2" y="4.05" width="10" height="70.09"/><polygon points="329.95 4.05 329.95 52.42 287.96 4.05 284.09 4.05 284.09 74.15 294.27 74.15 294.27 26.42 335.98 74.15 339.85 74.15 339.85 4.05 329.95 4.05"/><path d="M118.75,74.15l-10.85-23.33c2.19-1.35,4.08-2.76,5.64-4.11l.57-.49-4.45-9.61-1.01,1.02c-1.02,1.02-2.7,2.52-5.01,4.04L84.27,0l-19.53,41.4c-2.39-1.64-4.1-3.27-5.12-4.38l-1.01-1.09-4.56,9.66,.55,.5c1.43,1.29,3.39,2.86,5.85,4.41l-11.16,23.66h11.05l9-19.38c4.27,1.49,9.3,2.52,15.08,2.52s10.52-.95,14.75-2.38l8.91,19.24h10.67Zm-23.82-28.41c-3.05,.93-6.54,1.55-10.51,1.55s-7.73-.64-10.85-1.62l10.69-23,10.68,23.07Z"/></svg>